<svg width="16" height="16" xmlns="http://www.w3.org/2000/svg" xmlns:xlink="http://www.w3.org/1999/xlink"><defs><path d="M11 5v1.5h-.999V5H6.003v1.5H5V5H4v1.119c0 .866-.157 1.9-.397 3.369l-.13.775c-.34 1.978-.388 2.28-.44 2.872-.011.123-.018.231-.021.326.372.074.788.148 1.234.218C5.536 13.879 6.82 14 8 14c.11 0 .22-.001.334-.004.97-.022 2.004-.133 3.158-.317.069-.01.873-.153 1.495-.252a6.465 6.465 0 0 0-.02-.294c-.051-.593-.1-.903-.439-2.875l-.13-.77c-.24-1.47-.398-2.503-.398-3.37V5h-1zM5 4v-.744C5 1.71 6.123 1 8 1c1.885 0 3 .723 3 2.288V4h2v2.119c0 2.881 1.657 8.214.692 8.214-.429 0-3.115.667-5.692.667-2.834 0-5.696-.667-5.696-.667C1.347 14.333 3 9 3 6.12V4h2zm1.003 0H10v-.712c0-.895-.604-1.288-2-1.288-1.392 0-1.998.388-1.998 1.256V4z" id="a"/></defs><g fill="none" fill-rule="evenodd"><path d="M0 0h16v16H0z"/><use fill="#FFF" xlink:href="#a"/></g></svg>